# xmcd
#
# Track frame offsets:
# 150
# 24172
# 45701
# 69232
# 88495
# 114172
# 130698
# 152819
# 177164
# 202402
# 228134
# 269278
# 285403
#
# Disc length: 4149 seconds
#
#
# Revision: 0
# Processed by: cddbd v1.5.2PL0 Copyright (c) Steve Scherf et al.
# Submitted via: FreeRIP 2.96 
#
DISCID=ab10330d
DTITLE=Lucinda Williams - West
DYEAR=2007
DGENRE=Country
TTITLE0=Are You Alright?
TTITLE1=Mama You Sweet
TTITLE2=Learning How To Live
TTITLE3=Fancy Funeral
TTITLE4=Unsuffer Me
TTITLE5=Everything Has Changed
TTITLE6=Come On
TTITLE7=Where Is My Love?
TTITLE8=Rescue
TTITLE9=What If
TTITLE10=Wrap My Head Around That
TTITLE11=Words
TTITLE12=West
EXTD=
EXTT0=
EXTT1=
EXTT2=
EXTT3=
EXTT4=
EXTT5=
EXTT6=
EXTT7=
EXTT8=
EXTT9=
EXTT10=
EXTT11=
EXTT12=
PLAYORDER=
